<?xml version="1.0" encoding="UTF-8" standalone="no"?>
<!DOCTYPE svg PUBLIC "-//W3C//DTD SVG 1.1//EN" "http://www.w3.org/Graphics/SVG/1.1/DTD/svg11.dtd">
<svg width="100%" height="100%" viewBox="0 0 1000 1000" version="1.1" xmlns="http://www.w3.org/2000/svg" xmlns:xlink="http://www.w3.org/1999/xlink" xml:space="preserve" xmlns:serif="http://www.serif.com/" style="fill-rule:evenodd;clip-rule:evenodd;stroke-linejoin:round;stroke-miterlimit:2;">
    <g transform="matrix(1.33493,0,0,1.33493,-140.738,-162.96)">
        <g transform="matrix(13.8262,0,0,13.7806,-4318.21,-6216.56)">
            <g transform="matrix(50,0,0,50,345.226,505.398)">
                <path d="M0.069,-0L0.069,-0.73L0.219,-0.73L0.219,-0.342L0.293,-0.342L0.408,-0.55L0.575,-0.55L0.422,-0.281L0.578,-0L0.408,-0L0.292,-0.216L0.219,-0.216L0.219,-0L0.069,-0Z" style="fill-rule:nonzero;"/>
            </g>
            <g transform="matrix(50,0,0,50,375.226,505.398)">
            </g>
        </g>
        <g transform="matrix(13.8262,0,0,13.7806,-4701.62,-6216.56)">
            <g transform="matrix(50,0,0,50,345.226,505.398)">
                <path d="M0.195,-0L0.195,-0.35L0.049,-0.35L0.049,-0.485L0.195,-0.485L0.195,-0.56C0.195,-0.611 0.213,-0.653 0.248,-0.684C0.282,-0.715 0.328,-0.73 0.385,-0.73L0.546,-0.73L0.546,-0.6L0.39,-0.6C0.377,-0.6 0.366,-0.596 0.358,-0.588C0.349,-0.579 0.345,-0.568 0.345,-0.555L0.345,-0.485L0.546,-0.485L0.546,-0.35L0.345,-0.35L0.345,-0L0.195,-0Z" style="fill-rule:nonzero;"/>
            </g>
            <g transform="matrix(50,0,0,50,375.226,505.398)">
            </g>
        </g>
    </g>
</svg>
